<?xml version="1.0" encoding="UTF-8" standalone="no" ?>
<!DOCTYPE svg PUBLIC "-//W3C//DTD SVG 1.1//EN" "http://www.w3.org/Graphics/SVG/1.1/DTD/svg11.dtd">
<svg xmlns="http://www.w3.org/2000/svg" xmlns:xlink="http://www.w3.org/1999/xlink" version="1.1" width="1280" height="1024" viewBox="0 0 1280 1024" xml:space="preserve">
<desc>Created with Fabric.js 5.3.0</desc>
<defs>
</defs>
<g transform="matrix(1 0 0 1 640 512)" id="background-logo"  >
<rect style="stroke: none; stroke-width: 0; stroke-dasharray: none; stroke-linecap: butt; stroke-dashoffset: 0; stroke-linejoin: miter; stroke-miterlimit: 4; fill: rgb(255,255,255); fill-opacity: 0; fill-rule: nonzero; opacity: 1;"  paint-order="stroke"  x="-640" y="-512" rx="0" ry="0" width="1280" height="1024" />
</g>
<g transform="matrix(1.6033232256777903 0 0 1.6033232256777907 186.6397349066727 512.3167406467977)" id="logo-logo"  >
<g style=""  paint-order="stroke"   >
		<g transform="matrix(0.8733976800343661 0 0 0.8733976800343661 0 0)"  >
<linearGradient id="SVGID_11_360563" gradientUnits="userSpaceOnUse" gradientTransform="matrix(1 0 0 1 0 0)"  x1="130.1333313" y1="247.706955" x2="253.9609528" y2="250.6652985">
<stop offset="0%" style="stop-color:rgb(112,112,112);stop-opacity: 1"/>
<stop offset="100%" style="stop-color:rgb(70,70,70);stop-opacity: 1"/>
</linearGradient>
<path style="stroke: none; stroke-width: 1; stroke-dasharray: none; stroke-linecap: butt; stroke-dashoffset: 0; stroke-linejoin: miter; stroke-miterlimit: 4; fill: url(#SVGID_11_360563); fill-rule: nonzero; opacity: 1;"  paint-order="stroke"  transform=" translate(-250.00000769999997, -249.9999924)" d="M 185.9861603 354.0869446 L 185.9861603 239.8053894 L 265.58026129999996 239.8053894 C 269.90670779999994 239.8053894 274.0717774 239.1040039 277.9689332 237.8098602 L 277.9689332 200.1807861 C 277.9689332 193.4801788 272.5171205 188.0288849 265.8164979 188.0288849 L 206.2061158 188.0288849 L 179.9141694 145.9130402 L 265.58026129999996 145.9130402 C 295.63436899999994 145.9130402 320.08584599999995 170.36450200000002 320.08584599999995 200.4191437 C 320.08584599999995 220.4471436 309.22753909999994 237.9870606 293.08935549999995 247.4615631 L 293.08935549999995 254.6547241 C 293.08935549999995 269.6928406 280.85464479999996 281.9264831 265.8164978 281.9264831 L 228.10305789999998 281.9264831 L 228.10462959999998 313.6164855 L 185.9861603 354.0869446 z M 201.1065674 254.9257812 L 201.1065674 318.589447 L 212.9842377 307.1763916 L 212.9815979 266.8060913 L 265.8164978 266.8060913 C 272.51712039999995 266.8060913 277.96893309999996 261.3553162 277.96893309999996 254.65472409999998 L 277.96893309999996 253.50613399999997 C 273.98843379999994 254.43428039999998 269.8392029 254.92578119999996 265.58026119999994 254.92578119999996 L 201.1065674 254.92578119999996 z M 214.5921478 172.9084778 L 265.8164978 172.9084778 C 280.85464479999996 172.9084778 293.08935549999995 185.1426544 293.08935549999995 200.18078609999998 L 293.08935549999995 228.58004759999997 C 300.4132691 221.42381289999997 304.96542359999995 211.44409179999997 304.96542359999995 200.41914369999998 C 304.96542359999995 178.70202639999997 287.29684449999996 161.03344729999998 265.58026119999994 161.03344729999998 L 207.17855829999993 161.03344729999998 L 214.5921478 172.9084778 z" stroke-linecap="round" />
</g>
		<g transform="matrix(0.8733976800343661 0 0 0.8733976800343661 25.72509727816066 12.83909651393509)"  >
<linearGradient id="SVGID_12_360564" gradientUnits="userSpaceOnUse" gradientTransform="matrix(1 0 0 1 0 0)"  x1="267.5168457" y1="282.7146912" x2="299.9176941" y2="234.2542725">
<stop offset="0%" style="stop-color:rgb(70,70,70);stop-opacity: 1"/>
<stop offset="23.55673%" style="stop-color:rgb(66,66,66);stop-opacity: 1"/>
<stop offset="60.79844%" style="stop-color:rgb(53,53,53);stop-opacity: 1"/>
<stop offset="100%" style="stop-color:rgb(35,35,35);stop-opacity: 1"/>
</linearGradient>
<path style="stroke: none; stroke-width: 1; stroke-dasharray: none; stroke-linecap: butt; stroke-dashoffset: 0; stroke-linejoin: miter; stroke-miterlimit: 4; fill: url(#SVGID_12_360564); fill-rule: nonzero; opacity: 1;"  paint-order="stroke"  transform=" translate(-279.4540558, -264.70016484999996)" d="M 277.9689941 253.5002747 C 283.33673089999996 252.247406 288.4236755 250.2061921 293.08941649999997 247.4736939 L 293.08941649999997 254.6559144 C 293.08941649999997 269.6898805 280.8526611 281.9266358 265.81869509999996 281.9266358 L 265.81869509999996 266.806244 C 272.51480109999994 266.806244 277.96899419999994 261.3520204 277.96899419999994 254.6559144 L 277.96899419999994 253.5002747 z" stroke-linecap="round" />
</g>
		<g transform="matrix(0.8733976800343661 0 0 0.8733976800343661 31.031118757322645 -20.987458685039655)"  >
<linearGradient id="SVGID_13_360565" gradientUnits="userSpaceOnUse" gradientTransform="matrix(1 0 0 1 0 0)"  x1="285.4636841" y1="216.9274445" x2="285.6749878" y2="246.0882263">
<stop offset="0%" style="stop-color:rgb(70,70,70);stop-opacity: 1"/>
<stop offset="23.55673%" style="stop-color:rgb(66,66,66);stop-opacity: 1"/>
<stop offset="60.79844%" style="stop-color:rgb(53,53,53);stop-opacity: 1"/>
<stop offset="100%" style="stop-color:rgb(35,35,35);stop-opacity: 1"/>
</linearGradient>
<path style="stroke: none; stroke-width: 1; stroke-dasharray: none; stroke-linecap: butt; stroke-dashoffset: 0; stroke-linejoin: miter; stroke-miterlimit: 4; fill: url(#SVGID_13_360565); fill-rule: nonzero; opacity: 1;"  paint-order="stroke"  transform=" translate(-285.52920530000006, -225.97032165)" d="M 293.0894165 214.1440277 L 293.0894165 228.6056213 C 288.8449097 232.7528991 283.6715088 235.9173736 277.96899410000003 237.7966156 L 277.96899410000003 214.14402769999998 L 293.0894165 214.14402769999998 z" stroke-linecap="round" />
</g>
</g>
</g>
<g transform="matrix(1.9211538461538462 0 0 1.9211538461538462 728.8859277482233 491.4240382440857)" id="text-logo"  >
<g style=""  paint-order="stroke"   >
		<g transform="matrix(1 0 0 1 0 0)" id="text-logo-path-0"  >
<path style="stroke: none; stroke-width: 0; stroke-dasharray: none; stroke-linecap: butt; stroke-dashoffset: 0; stroke-linejoin: miter; stroke-miterlimit: 4; fill: rgb(70,70,70); fill-rule: nonzero; opacity: 1;"  paint-order="stroke"  transform=" translate(-212.17999999999998, 23.974999999999998)" d="M 10.7 0 L 10.7 -20.01 L 20.91 -20.01 C 28.7 -20.01 35.05 -26.36 35.05 -34.16 C 35.05 -41.95 28.7 -48.3 20.91 -48.3 L 2.42 -48.3 L 2.42 0 Z M 10.7 -28.29 L 10.7 -40.02 L 20.91 -40.02 C 24.7 -40.02 26.77 -37.95 26.77 -34.16 C 26.77 -30.36 24.7 -28.29 20.91 -28.29 Z M 52.44 0 L 79.21 0 L 79.21 -8.28 L 60.72 -8.28 L 60.72 -20.01 L 75.76 -20.01 L 75.76 -28.29 L 60.72 -28.29 L 60.72 -40.02 L 79.21 -40.02 L 79.21 -48.3 L 52.44 -48.3 Z M 104.88 0 L 104.88 -20.01 L 114.33 -20.01 L 121.65 0 L 130.48 0 L 122.41 -22.01 C 126.48 -24.5 129.24 -29.05 129.24 -34.16 C 129.24 -41.95 122.89 -48.3 115.09 -48.3 L 96.6 -48.3 L 96.6 0 Z M 104.88 -28.29 L 104.88 -40.02 L 115.09 -40.02 C 118.89 -40.02 120.96 -37.95 120.96 -34.16 C 120.96 -30.36 118.89 -28.29 115.09 -28.29 Z M 156.15 0 L 156.15 -20.01 L 170.5 -20.01 L 170.5 -28.29 L 156.15 -28.29 L 156.15 -40.02 L 173.95 -40.02 L 173.95 -48.3 L 147.87 -48.3 L 147.87 0 Z M 191.34 0 L 218.11 0 L 218.11 -8.28 L 199.62 -8.28 L 199.62 -20.01 L 214.66 -20.01 L 214.66 -28.29 L 199.62 -28.29 L 199.62 -40.02 L 218.11 -40.02 L 218.11 -48.3 L 191.34 -48.3 Z M 263.1 -8.28 L 256.2 -8.28 C 246.88 -8.28 240.33 -14.84 240.33 -24.22 C 240.33 -33.47 246.88 -40.02 256.2 -40.02 L 263.1 -40.02 L 263.1 -48.3 L 256.2 -48.3 C 242.88 -48.3 232.05 -37.47 232.05 -24.22 C 232.05 -10.83 242.88 0 256.2 0 L 263.1 0 Z M 280.49 -40.02 L 292.49 -40.02 L 292.49 0 L 300.77 0 L 300.77 -40.02 L 312.78 -40.02 L 312.78 -48.3 L 280.49 -48.3 Z M 351.42 -48.3 L 351.42 -14.49 C 351.42 -10.35 349 -7.94 345 -7.94 C 340.86 -7.94 338.45 -10.35 338.45 -14.49 L 338.45 -48.3 L 330.17 -48.3 L 330.17 -14.49 C 330.17 -6.35 336.86 0.35 345 0.35 C 353 0.35 359.7 -6.35 359.7 -14.49 L 359.7 -48.3 Z M 385.37 0 L 385.37 -29.12 L 394.75 -4.14 L 404.27 -4.14 L 413.66 -29.12 L 413.66 0 L 421.94 0 L 421.94 -48.3 L 412 -48.3 L 399.51 -15.04 L 387.02 -48.3 L 377.09 -48.3 L 377.09 0 Z" stroke-linecap="round" />
</g>
</g>
</g>
</svg>